<svg id="Layer_1" data-name="Layer 1" xmlns="http://www.w3.org/2000/svg" viewBox="0 0 34.1 42.6"><defs><style>.cls-1{fill:#fff;}.cls-1,.cls-2,.cls-4{fill-rule:evenodd;}.cls-2,.cls-3{fill:#df574b;}.cls-4{fill:#f99c34;}</style></defs><title>clock</title><path class="cls-1" d="M18.4,21.2C18.3,13.4,29,9.8,28.3,3.9H5.7C5,9.8,15.8,13.4,15.7,21.2S5,32.7,5.7,38.6H28.3C29,32.7,18.3,29.1,18.4,21.2Z"/><path class="cls-2" d="M2.5,0H31.6a2.5,2.5,0,0,1,2.5,2.5h0a2.5,2.5,0,0,1-2.5,2.5H2.5A2.5,2.5,0,0,1,0,2.5H0A2.5,2.5,0,0,1,2.5,0Z"/><rect class="cls-3" y="37.7" width="34.1" height="4.92" rx="2.5" ry="2.5"/><path class="cls-2" d="M19.8,21.2c0-7.7,11.4-10,9.7-18.8H17V3.9H28.3c0.7,5.9-10.1,9.5-9.9,17.4S29,32.7,28.3,38.6H17V40H29.5C31.2,31.2,19.8,29,19.8,21.2ZM17,2.5H4.5c-1.7,8.8,9.7,11,9.7,18.8S2.8,31.2,4.5,40H17V38.6H5.7C5,32.7,15.8,29.1,15.7,21.2S5,9.8,5.7,3.9H17V2.5Z"/><path class="cls-4" d="M11.3,11.1l1.5,1.5c2.3,2.5,4.1,5.2,4.1,8.6a10,10,0,0,1-.9,4.1,17.5,17.5,0,0,1-3.1,4.5c-1.2,1.4-2.6,2.6-3.8,4a9.6,9.6,0,0,0-1.8,2.8H26.9a9.6,9.6,0,0,0-1.8-2.8c-1.2-1.4-2.6-2.6-3.8-4s-4.1-5.2-4.1-8.6a10,10,0,0,1,.9-4.1,17.5,17.5,0,0,1,3.1-4.5l1.5-1.5H11.3Z"/></svg>