<svg xmlns="http://www.w3.org/2000/svg" xmlns:xlink="http://www.w3.org/1999/xlink" viewBox="0 0 74.3 48.4"><defs><style>.cls-1{isolation:isolate;}.cls-10,.cls-11,.cls-12,.cls-13,.cls-14,.cls-15,.cls-16,.cls-17,.cls-18,.cls-19,.cls-2,.cls-20,.cls-21,.cls-22,.cls-23,.cls-24,.cls-25,.cls-26,.cls-27,.cls-28,.cls-29,.cls-30,.cls-31,.cls-32,.cls-33,.cls-34,.cls-35,.cls-36,.cls-37,.cls-4,.cls-5,.cls-6,.cls-7,.cls-8,.cls-9{fill-rule:evenodd;}.cls-2{fill:url(#linear-gradient);}.cls-3{opacity:0.3;mix-blend-mode:multiply;}.cls-4{fill:#007aff;}.cls-5{fill:#087eff;opacity:0.97;}.cls-6{fill:#0f82ff;opacity:0.94;}.cls-7{fill:#1786ff;opacity:0.91;}.cls-8{fill:#1f8aff;opacity:0.88;}.cls-9{fill:#278eff;opacity:0.85;}.cls-10{fill:#2e92ff;opacity:0.82;}.cls-11{fill:#3696ff;opacity:0.79;}.cls-12{fill:#3e9aff;opacity:0.76;}.cls-13{fill:#469eff;opacity:0.73;}.cls-14{fill:#4da2ff;opacity:0.7;}.cls-15{fill:#55a6ff;opacity:0.67;}.cls-16{fill:#5daaff;opacity:0.64;}.cls-17{fill:#64aeff;opacity:0.61;}.cls-18{fill:#6cb2ff;opacity:0.58;}.cls-19{fill:#74b6ff;opacity:0.55;}.cls-20{fill:#7cbaff;opacity:0.52;}.cls-21{fill:#83bfff;opacity:0.48;}.cls-22{fill:#8bc3ff;opacity:0.45;}.cls-23{fill:#93c7ff;opacity:0.42;}.cls-24{fill:#9bcbff;opacity:0.39;}.cls-25{fill:#a2cfff;opacity:0.36;}.cls-26{fill:#aad3ff;opacity:0.33;}.cls-27{fill:#b2d7ff;opacity:0.3;}.cls-28{fill:#b9dbff;opacity:0.27;}.cls-29{fill:#c1dfff;opacity:0.24;}.cls-30{fill:#c9e3ff;opacity:0.21;}.cls-31{fill:#d1e7ff;opacity:0.18;}.cls-32{fill:#d8ebff;opacity:0.15;}.cls-33{fill:#e0efff;opacity:0.12;}.cls-34{fill:#e8f3ff;opacity:0.09;}.cls-35{fill:#f0f7ff;opacity:0.06;}.cls-36{fill:#f7fbff;opacity:0.03;}.cls-37{fill:#fff;opacity:0;}</style><linearGradient id="linear-gradient" x1="37.15" y1="48.43" x2="37.15" gradientUnits="userSpaceOnUse"><stop offset="0" stop-color="#e6f3ff"/><stop offset="1" stop-color="#fff"/></linearGradient></defs><title>cloud_counter</title><g class="cls-1"><g id="Layer_1" data-name="Layer 1"><path class="cls-2" d="M62.6,17.2A12.6,12.6,0,0,0,45.8,6.5a8.9,8.9,0,0,0-17.3.4,9.8,9.8,0,0,0-14.6,8.5,9.9,9.9,0,0,0,.2,1.8A15.6,15.6,0,1,0,27.9,42.5a13.8,13.8,0,0,0,19.4.6A15.6,15.6,0,1,0,62.6,17.2Z"/><g class="cls-3"><path class="cls-4" d="M62.6,17.2A12.6,12.6,0,0,0,45.8,6.5a8.9,8.9,0,0,0-17.3.4,9.8,9.8,0,0,0-14.6,8.5,9.9,9.9,0,0,0,.2,1.8A15.6,15.6,0,1,0,27.9,42.5a13.8,13.8,0,0,0,19.4.6A15.6,15.6,0,1,0,62.6,17.2Z"/><path class="cls-5" d="M62.4,17.3A12.5,12.5,0,0,0,45.8,6.7a8.9,8.9,0,0,0-17.1.4A9.7,9.7,0,0,0,14.3,17.3a15.4,15.4,0,1,0,13.6,25,13.9,13.9,0,0,0,19.4.6A15.4,15.4,0,1,0,62.4,17.3Z"/><path class="cls-6" d="M62.1,17.4A12.4,12.4,0,0,0,45.7,7a8.8,8.8,0,0,0-17,.4,9.6,9.6,0,0,0-14.3,8.3,9.5,9.5,0,0,0,.2,1.7A15.2,15.2,0,1,0,27.9,42a13.9,13.9,0,0,0,19.3.6,15.1,15.1,0,0,0,11,4.7A15.2,15.2,0,0,0,62.1,17.4Z"/><path class="cls-7" d="M61.9,17.5a12.2,12.2,0,0,0-12.2-11,12.4,12.4,0,0,0-4.1.7,8.7,8.7,0,0,0-16.8.4,9.6,9.6,0,0,0-4.7-1.2,9.5,9.5,0,0,0-9.5,9.4,9.3,9.3,0,0,0,.2,1.7,15,15,0,0,0,1.5,29.9A14.9,14.9,0,0,0,28,41.8a13.9,13.9,0,0,0,19.2.6A14.9,14.9,0,0,0,58,47,15,15,0,0,0,61.9,17.5Z"/><path class="cls-8" d="M61.6,17.6A12.1,12.1,0,0,0,49.5,6.8a12.3,12.3,0,0,0-4,.7,8.6,8.6,0,0,0-16.6.4,9.5,9.5,0,0,0-4.6-1.2,9.3,9.3,0,0,0-9.4,9.3,9.2,9.2,0,0,0,.2,1.7,14.8,14.8,0,0,0,1.5,29.5A14.7,14.7,0,0,0,28,41.5a14,14,0,0,0,19.1.6,14.6,14.6,0,0,0,10.7,4.6A14.8,14.8,0,0,0,61.6,17.6Z"/><path class="cls-9" d="M61.4,17.7A12,12,0,0,0,49.4,7a12.2,12.2,0,0,0-4,.7A8.5,8.5,0,0,0,29,8.1a9.4,9.4,0,0,0-4.6-1.2A9.2,9.2,0,0,0,15.1,16a9,9,0,0,0,.2,1.7,14.6,14.6,0,0,0,1.5,29.1,14.4,14.4,0,0,0,11.4-5.5,14,14,0,0,0,19,.6,14.4,14.4,0,0,0,10.5,4.5A14.6,14.6,0,0,0,61.4,17.7Z"/><path class="cls-10" d="M61.2,17.8A11.8,11.8,0,0,0,49.3,7.3a12.2,12.2,0,0,0-3.9.7,8.5,8.5,0,0,0-16.3.4,9.4,9.4,0,0,0-4.5-1.2,9.1,9.1,0,0,0-9.2,9,8.8,8.8,0,0,0,.2,1.6A14.5,14.5,0,0,0,2.2,32.1,14.6,14.6,0,0,0,16.9,46.4,14.2,14.2,0,0,0,28.1,41a14.1,14.1,0,0,0,18.9.5,14.1,14.1,0,0,0,10.4,4.5A14.6,14.6,0,0,0,72.1,31.7,14.4,14.4,0,0,0,61.2,17.8Z"/><path class="cls-11" d="M60.9,17.9A11.7,11.7,0,0,0,49.2,7.5a12.1,12.1,0,0,0-3.9.7,8.4,8.4,0,0,0-16.1.4,9.3,9.3,0,0,0-4.5-1.2,9,9,0,0,0-9.1,8.9,8.7,8.7,0,0,0,.2,1.6A14.3,14.3,0,0,0,2.5,32,14.4,14.4,0,0,0,17.1,46.1a14,14,0,0,0,11-5.3,14.1,14.1,0,0,0,18.9.5,13.9,13.9,0,0,0,10.2,4.4A14.4,14.4,0,0,0,71.8,31.6,14.2,14.2,0,0,0,60.9,17.9Z"/><path class="cls-12" d="M60.7,18A11.5,11.5,0,0,0,49,7.8a12,12,0,0,0-3.9.6,8.3,8.3,0,0,0-15.9.4,9.2,9.2,0,0,0-4.4-1.1,8.9,8.9,0,0,0-9,8.7,8.5,8.5,0,0,0,.2,1.6,14.1,14.1,0,0,0-13,13.9A14.2,14.2,0,0,0,17.3,45.8a13.7,13.7,0,0,0,10.9-5.3,14.2,14.2,0,0,0,18.8.5,13.7,13.7,0,0,0,10,4.3A14.2,14.2,0,0,0,71.4,31.5,14,14,0,0,0,60.7,18Z"/><path class="cls-13" d="M60.4,18.1A11.4,11.4,0,0,0,48.9,8a11.9,11.9,0,0,0-3.8.6A8.2,8.2,0,0,0,29.3,9a9.2,9.2,0,0,0-4.4-1.1A8.8,8.8,0,0,0,16,16.5a8.3,8.3,0,0,0,.2,1.6A13.9,13.9,0,0,0,3.2,31.7c0,7.6,6.4,13.7,14.3,13.7a13.5,13.5,0,0,0,10.7-5.2,14,14,0,0,0,9.6,3.8,14.1,14.1,0,0,0,9.1-3.2,13.4,13.4,0,0,0,9.9,4.3c7.9,0,14.3-6.1,14.3-13.7A13.8,13.8,0,0,0,60.4,18.1Z"/><path class="cls-14" d="M60.2,18.2A11.3,11.3,0,0,0,48.8,8.3a11.9,11.9,0,0,0-3.8.6,8.2,8.2,0,0,0-15.6.4A9.1,9.1,0,0,0,25,8.2a8.7,8.7,0,0,0-8.8,8.5,8.1,8.1,0,0,0,.2,1.5A13.8,13.8,0,0,0,3.6,31.6c0,7.5,6.3,13.5,14.1,13.5A13.2,13.2,0,0,0,28.2,40a14,14,0,0,0,9.6,3.7,14.2,14.2,0,0,0,9-3.2,13.2,13.2,0,0,0,9.7,4.2c7.8,0,14.1-6.1,14.1-13.5A13.6,13.6,0,0,0,60.2,18.2Z"/><path class="cls-15" d="M59.9,18.3A11.1,11.1,0,0,0,48.7,8.5a11.8,11.8,0,0,0-3.7.6,8.1,8.1,0,0,0-15.4.4,9.1,9.1,0,0,0-4.3-1.1,8.5,8.5,0,0,0-8.7,8.3,8,8,0,0,0,.2,1.5C9.5,18.9,4,24.6,4,31.5s6.3,13.3,14,13.3a13,13,0,0,0,10.3-5,14.1,14.1,0,0,0,9.5,3.7,14.3,14.3,0,0,0,9-3.1,12.9,12.9,0,0,0,9.5,4.1c7.7,0,14-6,14-13.3A13.4,13.4,0,0,0,59.9,18.3Z"/><path class="cls-16" d="M59.7,18.4A11,11,0,0,0,48.5,8.8a11.7,11.7,0,0,0-3.7.6,8,8,0,0,0-15.3.4,9,9,0,0,0-4.3-1.1,8.4,8.4,0,0,0-8.7,8.2,7.8,7.8,0,0,0,.1,1.5c-7,.6-12.5,6.2-12.5,13s6.2,13.1,13.8,13.1a12.8,12.8,0,0,0,10.2-4.9,14.1,14.1,0,0,0,9.5,3.6,14.3,14.3,0,0,0,9-3.1,12.7,12.7,0,0,0,9.4,4.1C63.8,44.1,70,38.3,70,31A13.2,13.2,0,0,0,59.7,18.4Z"/><path class="cls-17" d="M59.4,18.5A10.8,10.8,0,0,0,48.4,9a11.7,11.7,0,0,0-3.7.6,7.9,7.9,0,0,0-15.1.4,8.9,8.9,0,0,0-4.2-1A8.3,8.3,0,0,0,16.9,17a7.6,7.6,0,0,0,.1,1.5c-6.9.6-12.3,6.1-12.3,12.8s6.1,12.9,13.7,12.9a12.5,12.5,0,0,0,10-4.8,14.2,14.2,0,0,0,9.4,3.5,14.4,14.4,0,0,0,8.9-3,12.4,12.4,0,0,0,9.2,4c7.6,0,13.7-5.8,13.7-12.9A13,13,0,0,0,59.4,18.5Z"/><path class="cls-18" d="M59.2,18.6C58.7,13.4,54,9.3,48.3,9.3a11.6,11.6,0,0,0-3.6.6,7.9,7.9,0,0,0-14.9.4,8.9,8.9,0,0,0-4.2-1,8.2,8.2,0,0,0-8.5,7.9,7.5,7.5,0,0,0,.1,1.4C10.4,19.2,5,24.6,5,31.1s6.1,12.7,13.5,12.7A12.3,12.3,0,0,0,28.4,39a14.2,14.2,0,0,0,9.4,3.5,14.5,14.5,0,0,0,8.9-3,12.2,12.2,0,0,0,9.1,3.9c7.5,0,13.5-5.7,13.5-12.7A12.8,12.8,0,0,0,59.2,18.6Z"/><path class="cls-19" d="M58.9,18.7c-0.5-5.1-5.1-9.1-10.8-9.1a11.5,11.5,0,0,0-3.6.6,7.8,7.8,0,0,0-14.8.4,8.8,8.8,0,0,0-4.1-1c-4.6,0-8.4,3.5-8.4,7.8a7.3,7.3,0,0,0,.1,1.4C10.7,19.3,5.4,24.6,5.4,31s6,12.4,13.4,12.4a12.1,12.1,0,0,0,9.6-4.7,14.3,14.3,0,0,0,9.4,3.4,14.5,14.5,0,0,0,8.9-2.9,11.9,11.9,0,0,0,8.9,3.9c7.4,0,13.4-5.6,13.4-12.4A12.6,12.6,0,0,0,58.9,18.7Z"/><path class="cls-20" d="M58.7,18.7c-0.5-5-5.1-9-10.6-9a11.4,11.4,0,0,0-3.5.6,7.7,7.7,0,0,0-14.6.3,8.8,8.8,0,0,0-4.1-1c-4.6,0-8.3,3.4-8.3,7.7a7.1,7.1,0,0,0,.1,1.4C11,19.3,5.8,24.6,5.8,30.9S11.7,43.1,19,43.1a11.8,11.8,0,0,0,9.5-4.6c2.1,2.1,6,3.4,9.3,3.4A14.6,14.6,0,0,0,46.6,39a11.7,11.7,0,0,0,8.7,3.8c7.3,0,13.2-5.5,13.2-12.2S64.3,20.1,58.7,18.7Z"/><path class="cls-21" d="M58.4,18.8c-0.5-4.9-5-8.8-10.5-8.8a11.4,11.4,0,0,0-3.5.6,7.4,7.4,0,0,0-7.2-5A7.4,7.4,0,0,0,30,10.9a8.7,8.7,0,0,0-4-1c-4.5,0-8.2,3.4-8.2,7.5a7,7,0,0,0,.1,1.4c-6.6.6-11.8,5.7-11.8,12s5.9,12,13.1,12c4.1,0,6.9-1.8,9.3-4.5,2.1,2,6,3.3,9.3,3.3a14.7,14.7,0,0,0,8.8-2.8,11.5,11.5,0,0,0,8.6,3.7c7.2,0,13.1-5.4,13.1-12S64,20.2,58.4,18.8Z"/><path class="cls-22" d="M58.2,18.9c-0.5-4.9-5-8.7-10.4-8.7a11.3,11.3,0,0,0-3.5.5,7.3,7.3,0,0,0-7.1-4.9,7.3,7.3,0,0,0-7.2,5.2,8.6,8.6,0,0,0-4-1c-4.5,0-8.1,3.3-8.1,7.4a6.8,6.8,0,0,0,.1,1.3c-6.5.6-11.6,5.6-11.6,11.7s5.8,11.8,12.9,11.8c4.1,0,6.8-1.7,9.1-4.4,2.1,2,6,3.2,9.2,3.2s6.7-1.1,8.7-2.8c2.4,2.3,4.7,3.7,8.4,3.7,7.1,0,12.9-5.3,12.9-11.8S63.7,20.3,58.2,18.9Z"/><path class="cls-23" d="M57.9,19c-0.5-4.8-4.9-8.5-10.3-8.5a11.2,11.2,0,0,0-3.4.5,7.2,7.2,0,0,0-7-4.8,7.2,7.2,0,0,0-7.1,5.1,8.6,8.6,0,0,0-3.9-.9c-4.4,0-8,3.2-8,7.3a6.6,6.6,0,0,0,.1,1.3c-6.5.6-11.5,5.5-11.5,11.5s5.7,11.6,12.8,11.6c4,0,6.6-1.7,9-4.4,2.1,2,6,3.2,9.2,3.2s6.7-1,8.7-2.7c2.3,2.2,4.6,3.6,8.2,3.6,7,0,12.8-5.2,12.8-11.6S63.4,20.3,57.9,19Z"/><path class="cls-24" d="M57.7,19.1c-0.5-4.7-4.8-8.3-10.2-8.3a11.2,11.2,0,0,0-3.4.5,7.1,7.1,0,0,0-6.9-4.7,7.1,7.1,0,0,0-7,5,8.5,8.5,0,0,0-3.9-.9c-4.4,0-7.9,3.2-7.9,7.1a6.5,6.5,0,0,0,.1,1.3c-6.4.6-11.4,5.4-11.4,11.3s5.6,11.4,12.6,11.4c4,0,6.5-1.7,8.8-4.3,2,1.9,6,3.1,9.1,3.1s6.7-1,8.7-2.7c2.3,2.2,4.5,3.5,8.1,3.5,7,0,12.6-5.1,12.6-11.4S63.1,20.4,57.7,19.1Z"/><path class="cls-25" d="M57.4,19.2C57,14.6,52.7,11,47.4,11a11.1,11.1,0,0,0-3.3.5,7.1,7.1,0,0,0-6.8-4.6,7,7,0,0,0-6.9,4.9,8.5,8.5,0,0,0-3.8-.9c-4.3,0-7.8,3.1-7.8,7a6.3,6.3,0,0,0,.1,1.3c-6.3.5-11.2,5.3-11.2,11.1S13.1,41.5,20,41.5c3.9,0,6.3-1.6,8.6-4.2,2,1.9,6,3.1,9.1,3.1s6.7-1,8.6-2.6c2.3,2.1,4.3,3.5,7.9,3.5,6.9,0,12.5-5,12.5-11.2S62.8,20.5,57.4,19.2Z"/><path class="cls-26" d="M57.2,19.3c-0.5-4.5-4.7-8-9.9-8a11,11,0,0,0-3.3.5,7,7,0,0,0-6.8-4.5,6.9,6.9,0,0,0-6.8,4.8,8.4,8.4,0,0,0-3.8-.9c-4.3,0-7.7,3.1-7.7,6.9a6.1,6.1,0,0,0,.1,1.2c-6.2.5-11.1,5.2-11.1,10.9s5.5,11,12.3,11c3.9,0,6.2-1.6,8.4-4.1,2,1.9,6,3,9.1,3s6.6-1,8.6-2.6c2.2,2.1,4.2,3.4,7.7,3.4,6.8,0,12.3-4.9,12.3-11S62.5,20.6,57.2,19.3Z"/><path class="cls-27" d="M56.9,19.4c-0.5-4.4-4.7-7.9-9.8-7.9a11,11,0,0,0-3.3.5,6.9,6.9,0,0,0-6.7-4.4,6.8,6.8,0,0,0-6.8,4.7,8.4,8.4,0,0,0-3.7-.9c-4.2,0-7.6,3-7.6,6.7a6,6,0,0,0,.1,1.2c-6.2.5-11,5.1-11,10.7s5.4,10.7,12.2,10.7c3.8,0,6-1.6,8.3-4,2,1.8,6,2.9,9,2.9s6.6-1,8.5-2.5c2.2,2.1,4.1,3.3,7.6,3.3,6.7,0,12.2-4.8,12.2-10.7S62.2,20.6,56.9,19.4Z"/><path class="cls-28" d="M56.7,19.5c-0.5-4.3-4.6-7.7-9.7-7.7a10.9,10.9,0,0,0-3.2.5,6.8,6.8,0,0,0-6.6-4.4,6.7,6.7,0,0,0-6.7,4.7,8.3,8.3,0,0,0-3.7-.9c-4.2,0-7.5,3-7.5,6.6a5.8,5.8,0,0,0,.1,1.2C13.4,20,8.6,24.5,8.6,30s5.4,10.5,12,10.5c3.8,0,5.9-1.5,8.1-4,1.9,1.8,5.9,2.9,9,2.9s6.6-.9,8.5-2.5c2.2,2,4,3.3,7.4,3.3,6.6,0,12-4.7,12-10.5S61.9,20.7,56.7,19.5Z"/><path class="cls-29" d="M56.5,19.6C56,15.4,51.9,12,46.9,12a10.9,10.9,0,0,0-3.2.5,6.7,6.7,0,0,0-6.5-4.3,6.6,6.6,0,0,0-6.6,4.6A8.3,8.3,0,0,0,27,12c-4.1,0-7.4,2.9-7.4,6.5a5.7,5.7,0,0,0,.1,1.2C13.7,20.1,9,24.5,9,29.9s5.3,10.3,11.9,10.3c3.8,0,5.8-1.5,7.9-3.9,1.9,1.7,5.9,2.8,8.9,2.8s6.6-.9,8.5-2.4c2.2,2,3.9,3.2,7.3,3.2,6.5,0,11.9-4.6,11.9-10.3S61.5,20.8,56.5,19.6Z"/><path class="cls-30" d="M56.2,19.7c-0.4-4.2-4.5-7.4-9.4-7.4a10.8,10.8,0,0,0-3.1.5,6.6,6.6,0,0,0-6.4-4.2A6.6,6.6,0,0,0,30.7,13a8.2,8.2,0,0,0-3.6-.8c-4,0-7.3,2.8-7.3,6.3a5.5,5.5,0,0,0,.1,1.1c-5.9.5-10.6,4.8-10.6,10s5.2,10.1,11.7,10.1c3.7,0,5.6-1.5,7.8-3.8,1.9,1.7,5.9,2.8,8.9,2.8s6.6-.9,8.4-2.4c2.1,1.9,3.7,3.1,7.1,3.1,6.5,0,11.7-4.5,11.7-10.1S61.2,20.8,56.2,19.7Z"/><path class="cls-31" d="M56,19.8c-0.4-4.1-4.4-7.3-9.3-7.3a10.7,10.7,0,0,0-3.1.5,6.5,6.5,0,0,0-6.3-4.1,6.5,6.5,0,0,0-6.4,4.4,8.2,8.2,0,0,0-3.6-.8c-4,0-7.2,2.8-7.2,6.2a5.3,5.3,0,0,0,.1,1.1c-5.8.5-10.4,4.7-10.4,9.8s5.2,9.9,11.5,9.9c3.7,0,5.5-1.5,7.6-3.7,1.9,1.7,5.9,2.7,8.8,2.7s6.6-.9,8.4-2.3c2.1,1.9,3.6,3.1,6.9,3.1,6.4,0,11.6-4.4,11.6-9.9S60.9,20.9,56,19.8Z"/><path class="cls-32" d="M55.7,19.9c-0.4-4-4.4-7.1-9.2-7.1a10.7,10.7,0,0,0-3.1.4,6.5,6.5,0,0,0-6.3-4,6.4,6.4,0,0,0-6.3,4.3,8.1,8.1,0,0,0-3.5-.8c-3.9,0-7.1,2.7-7.1,6.1a5.2,5.2,0,0,0,.1,1.1c-5.8.5-10.3,4.6-10.3,9.6s5.1,9.7,11.4,9.7c3.6,0,5.3-1.4,7.4-3.6,1.8,1.6,5.9,2.7,8.8,2.7s6.6-.9,8.4-2.3c2.1,1.9,3.5,3,6.8,3,6.3,0,11.4-4.3,11.4-9.7S60.6,21,55.7,19.9Z"/><path class="cls-33" d="M55.5,20c-0.4-3.9-4.3-6.9-9.1-6.9a10.6,10.6,0,0,0-3,.4,6.4,6.4,0,0,0-6.2-3.9c-3,0-5.6,1.8-6.3,4.2a8.1,8.1,0,0,0-3.5-.8c-3.9,0-7,2.7-7,5.9a5,5,0,0,0,.1,1.1c-5.7.5-10.1,4.5-10.1,9.4s5,9.5,11.2,9.5c3.6,0,5.2-1.4,7.2-3.6,1.8,1.6,5.9,2.6,8.8,2.6s6.5-.9,8.3-2.2c2,1.8,3.4,2.9,6.6,2.9,6.2,0,11.2-4.2,11.2-9.5S60.3,21.1,55.5,20Z"/><path class="cls-34" d="M55.2,20.1c-0.4-3.8-4.3-6.8-8.9-6.8a10.6,10.6,0,0,0-3,.4,6.3,6.3,0,0,0-6.1-3.8c-3,0-5.5,1.7-6.2,4.1a8,8,0,0,0-3.4-.8c-3.8,0-6.9,2.6-6.9,5.8a4.9,4.9,0,0,0,.1,1.1c-5.6.5-10,4.4-10,9.2s5,9.2,11.1,9.2c3.5,0,5-1.4,7.1-3.5,1.8,1.6,5.9,2.5,8.7,2.5s6.5-.8,8.3-2.2c2,1.8,3.3,2.9,6.4,2.9,6.1,0,11.1-4.1,11.1-9.2S60,21.1,55.2,20.1Z"/><path class="cls-35" d="M55,20.2c-0.4-3.7-4.2-6.6-8.8-6.6a10.5,10.5,0,0,0-2.9.4,6.2,6.2,0,0,0-6-3.7c-3,0-5.4,1.7-6.1,4a8,8,0,0,0-3.4-.7c-3.8,0-6.8,2.5-6.8,5.7a4.7,4.7,0,0,0,.1,1c-5.5.4-9.9,4.3-9.9,9s4.9,9,10.9,9c3.5,0,4.9-1.3,6.9-3.4,1.8,1.5,5.9,2.5,8.7,2.5s6.5-.8,8.2-2.1c2,1.7,3.1,2.8,6.3,2.8,6,0,10.9-4,10.9-9S59.7,21.2,55,20.2Z"/><path class="cls-36" d="M54.7,20.3c-0.4-3.6-4.1-6.5-8.7-6.5a10.5,10.5,0,0,0-2.9.4,6.1,6.1,0,0,0-5.9-3.6c-2.9,0-5.4,1.7-6,3.9a7.9,7.9,0,0,0-3.3-.7c-3.7,0-6.8,2.5-6.8,5.5a4.6,4.6,0,0,0,.1,1c-5.5.4-9.7,4.2-9.7,8.8s4.8,8.8,10.8,8.8c3.4,0,4.7-1.3,6.7-3.3C30.8,36,34.9,37,37.7,37s6.5-.8,8.2-2.1c2,1.7,3,2.7,6.1,2.7,6,0,10.8-3.9,10.8-8.8S59.4,21.3,54.7,20.3Z"/><path class="cls-37" d="M54.5,20.4c-0.4-3.5-4.1-6.3-8.6-6.3a10.4,10.4,0,0,0-2.8.4,6,6,0,0,0-5.8-3.6c-2.9,0-5.3,1.6-5.9,3.8A7.9,7.9,0,0,0,28,14c-3.7,0-6.7,2.4-6.7,5.4a4.4,4.4,0,0,0,.1,1c-5.4.4-9.6,4.1-9.6,8.6s4.8,8.6,10.6,8.6c3.4,0,4.6-1.3,6.5-3.2,1.7,1.5,5.9,2.4,8.6,2.4s6.5-.8,8.2-2c1.9,1.7,2.9,2.7,5.9,2.7,5.9,0,10.6-3.9,10.6-8.6S59,21.3,54.5,20.4Z"/></g></g></g></svg>