<?xml version="1.0" encoding="utf-8"?>
<!-- Generator: Adobe Illustrator 19.1.0, SVG Export Plug-In . SVG Version: 6.00 Build 0)  -->
<svg version="1.1" id="Layer_1" xmlns="http://www.w3.org/2000/svg" xmlns:xlink="http://www.w3.org/1999/xlink" x="0px" y="0px"
	 viewBox="0 0 365.8 321" style="enable-background:new 0 0 365.8 321;" xml:space="preserve" preserveAspectRatio="none">
<style type="text/css">
	.st0{fill:#FFFFFF;}
</style>
<path class="st0" d="M340.7,220.3c9.9-6.8,12.5-20.4,5.7-30.3c-1.1-1.6-2.5-3.1-4-4.4c16.8-4.4,26.8-21.6,22.4-38.4
	c-3.4-12.9-14.6-22.2-27.9-23.3c5.5-7.1,6-16.9,1.4-24.6c16-6.7,23.5-25.1,16.8-41.1c-4.5-10.7-14.5-18-26-19.1
	c3.1-11.6-3.8-23.6-15.4-26.7c-9.8-2.6-19.8,1.8-24.6,10.2C286,12.2,275.5,5.5,264.4,7.4c-9.5,1.6-16.7,9.2-17.9,18.7
	c-6.6-10-20.2-12.8-30.2-6.1c-1.7,1.1-3.2,2.4-4.5,3.9c-4.2-16.8-21.2-27.1-38-23c-13,3.2-22.5,14.2-23.7,27.5
	c-7-5.6-16.8-6.3-24.5-1.8c-6.5-16.1-24.8-23.9-40.9-17.4c-7.9,3.2-14,9.3-17.2,16.9C64,20,57.5,15.6,49.9,15.1
	c-12-0.7-22.4,8.4-23.1,20.4c-0.1,1-0.1,2,0,3c0,4.3,1.3,8.5,3.7,12.1c-12,1.5-20.5,12.3-19,24.3c1.2,9.5,8.4,17.2,17.8,18.8
	c-10.4,6.1-13.8,19.5-7.6,29.9c1,1.7,2.3,3.3,3.7,4.6C8.4,131.5-2.7,148,0.6,165c2.6,13.1,13.1,23.1,26.3,25
	c-5.9,6.8-7.1,16.4-3,24.4c-16.4,5.7-25.1,23.6-19.4,40c3.8,10.9,13.3,18.9,24.7,20.7c-3.9,11.4,2.3,23.8,13.7,27.6
	c10.8,3.7,22.5-1.7,27-11.9c2.3-0.6,4.5-1.6,6.5-2.9c1.4,12,12.2,20.5,24.1,19.1c9.5-1.1,17.1-8.3,18.9-17.7
	c6.1,10.4,19.4,13.9,29.7,7.8c1.7-1,3.3-2.2,4.6-3.7c3.2,17,19.6,28.2,36.6,25c13.1-2.5,23.1-13,25.1-26.2c6.7,6,16.3,7.2,24.3,3.1
	c5.6,16.4,23.3,25.2,39.7,19.6c10.9-3.7,18.9-13.2,20.8-24.6c2.6,0.9,5.2,1.3,7.8,1.2c4,5.1,10.2,8.5,17.3,8.4
	c12,0,21.8-9.8,21.8-21.8c0-1-0.1-2-0.2-2.9c-0.3-4.3-1.8-8.4-4.4-11.8c11.8-2.2,19.6-13.6,17.4-25.4
	C357.9,228.5,350.2,221.4,340.7,220.3z"/>
</svg>
